<?xml version="1.0" standalone="no"?>
<!DOCTYPE svg PUBLIC "-//W3C//DTD SVG 20010904//EN"
 "http://www.w3.org/TR/2001/REC-SVG-20010904/DTD/svg10.dtd">
<svg version="1.0" xmlns="http://www.w3.org/2000/svg"
 width="500.000000pt" height="500.000000pt" viewBox="0 0 500.000000 500.000000"
 preserveAspectRatio="xMidYMid meet">

<g transform="translate(0.000000,500.000000) scale(0.100000,-0.100000)"
fill="#000000" stroke="none">
<path d="M2380 3875 c0 -8 9 -88 21 -177 18 -144 25 -173 59 -248 21 -47 55
-139 77 -205 l38 -120 5 161 5 162 111 83 c61 46 128 99 150 117 l39 33 -66
-35 c-122 -66 -225 -83 -285 -47 -35 21 -90 120 -124 224 -23 67 -30 80 -30
52z"/>
<path d="M3130 3407 c-131 -61 -165 -82 -225 -137 -39 -36 -117 -96 -173 -135
-56 -38 -102 -73 -102 -77 0 -6 15 -2 194 56 l109 35 148 -105 c170 -119 209
-139 128 -66 -102 93 -156 197 -137 268 7 29 86 111 188 196 25 20 41 37 35
37 -5 -1 -80 -33 -165 -72z"/>
<path d="M2632 3423 c-35 -30 -33 -74 4 -108 51 -47 127 -20 127 45 0 64 -83
103 -131 63z"/>
<path d="M2845 3085 c-70 -69 18 -188 92 -126 45 38 38 117 -13 140 -37 16
-52 14 -79 -14z"/>
<path d="M2586 2968 c4 -7 42 -60 84 -118 42 -58 79 -110 83 -116 5 -9 -32
-148 -94 -349 -11 -37 -11 -35 1 -35 6 0 10 5 10 10 0 27 66 147 103 187 94
103 155 97 347 -33 35 -24 66 -41 68 -39 6 5 -203 232 -243 265 -18 14 -54 36
-81 50 -27 13 -99 62 -160 107 -109 81 -132 96 -118 71z"/>
<path d="M2576 2775 c-53 -49 -22 -125 52 -125 75 0 112 85 56 129 -35 28 -75
26 -108 -4z"/>
<path d="M1748 983 c7 -3 12 -24 12 -53 0 -29 -5 -50 -12 -53 -7 -3 1 -6 17
-6 17 0 25 3 18 7 -6 4 -11 27 -10 52 2 41 4 45 29 48 19 2 28 -2 31 -15 4
-14 5 -13 6 5 1 20 -3 22 -51 21 -29 0 -47 -3 -40 -6z"/>
<path d="M1919 980 c-43 -25 -24 -110 25 -110 49 0 75 70 38 103 -21 19 -39
21 -63 7z m49 -12 c18 -18 15 -77 -4 -85 -38 -14 -66 35 -44 76 12 24 30 27
48 9z"/>
<path d="M2058 983 c7 -3 12 -23 12 -48 0 -48 17 -68 52 -63 20 3 23 10 26 48
2 24 8 50 14 57 8 10 6 13 -8 13 -16 0 -19 -8 -19 -52 0 -50 -2 -53 -25 -53
-22 0 -25 5 -28 44 -2 28 1 47 10 52 8 6 3 8 -17 8 -16 0 -24 -3 -17 -6z"/>
<path d="M2228 978 c16 -16 16 -95 0 -101 -7 -3 -4 -6 7 -6 18 -1 20 4 17 47
-3 51 4 48 40 -17 9 -17 21 -31 27 -31 5 0 11 27 13 60 2 48 0 60 -12 60 -12
0 -14 -11 -12 -47 l3 -48 -28 47 c-18 31 -35 48 -47 48 -16 0 -17 -3 -8 -12z"/>
<path d="M2398 983 c7 -3 12 -24 12 -53 0 -29 -5 -50 -12 -53 -7 -3 3 -5 22
-5 19 0 27 2 16 5 -16 4 -18 12 -14 59 4 50 3 54 -16 53 -12 0 -15 -3 -8 -6z"/>
<path d="M2582 931 l-29 -61 26 1 c14 0 20 3 14 6 -26 10 -13 33 18 33 26 0
31 -3 26 -20 -4 -15 0 -20 13 -20 17 0 16 4 -5 55 -12 31 -25 58 -28 61 -3 4
-19 -21 -35 -55z m41 9 c4 -15 0 -20 -14 -20 -21 0 -22 1 -13 24 8 22 21 20
27 -4z"/>
<path d="M2721 963 c0 -28 0 -28 10 -5 5 13 15 22 21 20 18 -6 23 -89 6 -99
-8 -6 -3 -8 17 -8 17 0 24 3 18 6 -20 7 -17 103 2 103 9 0 15 -9 15 -22 0 -16
3 -19 11 -11 24 24 2 43 -51 43 -48 0 -50 -1 -49 -27z"/>
<path d="M2878 983 c7 -3 12 -24 12 -53 0 -29 -5 -50 -12 -53 -7 -3 -2 -6 12
-6 24 -1 25 1 25 59 0 58 -1 60 -25 59 -14 0 -19 -3 -12 -6z"/>
<path d="M2996 974 c-23 -22 -21 -81 3 -94 27 -14 47 -13 65 6 34 33 10 104
-34 104 -10 0 -26 -7 -34 -16z m65 -21 c22 -58 -37 -104 -63 -48 -8 19 -8 31
0 50 16 34 49 33 63 -2z"/>
<path d="M3149 939 c2 -36 -1 -54 -10 -60 -10 -6 -5 -9 15 -9 23 0 26 3 17 14
-11 13 -12 76 -1 76 3 0 16 -20 30 -45 14 -25 28 -45 32 -45 5 0 8 22 8 48 0
26 5 53 12 60 9 9 8 12 -8 12 -17 0 -19 -6 -16 -47 3 -52 -4 -49 -40 16 -27
49 -44 40 -39 -20z"/>
<path d="M2463 969 c20 -12 23 -59 5 -77 -9 -9 -9 -12 0 -12 13 0 32 32 32 54
0 18 -27 46 -43 46 -7 0 -4 -5 6 -11z"/>
</g>
</svg>
